<svg width="26" height="26" viewBox="0 0 26 26" fill="none" xmlns="http://www.w3.org/2000/svg">
<path d="M20.5843 3.25C21.1589 3.25 21.71 3.47827 22.1164 3.8846C22.5227 4.29093 22.751 4.84203 22.751 5.41667V20.5833C22.751 21.158 22.5227 21.7091 22.1164 22.1154C21.71 22.5217 21.1589 22.75 20.5843 22.75H5.41764C4.84301 22.75 4.29191 22.5217 3.88558 22.1154C3.47925 21.7091 3.25098 21.158 3.25098 20.5833V5.41667C3.25098 4.84203 3.47925 4.29093 3.88558 3.8846C4.29191 3.47827 4.84301 3.25 5.41764 3.25H20.5843ZM20.0426 20.0417V14.3C20.0426 13.3633 19.6706 12.4651 19.0082 11.8027C18.3459 11.1404 17.4476 10.7683 16.511 10.7683C15.5901 10.7683 14.5176 11.3317 13.9976 12.1767V10.9742H10.9751V20.0417H13.9976V14.7008C13.9976 13.8667 14.6693 13.1842 15.5035 13.1842C15.9057 13.1842 16.2915 13.344 16.5759 13.6284C16.8604 13.9128 17.0201 14.2986 17.0201 14.7008V20.0417H20.0426ZM7.45431 9.27333C7.937 9.27333 8.39993 9.08158 8.74124 8.74027C9.08256 8.39895 9.27431 7.93603 9.27431 7.45333C9.27431 6.44583 8.46181 5.6225 7.45431 5.6225C6.96874 5.6225 6.50306 5.81539 6.15972 6.15874C5.81637 6.50209 5.62348 6.96777 5.62348 7.45333C5.62348 8.46083 6.44681 9.27333 7.45431 9.27333ZM8.96014 20.0417V10.9742H5.95931V20.0417H8.96014Z" fill="white"/>
</svg>
