<svg width="30" height="30" viewBox="0 0 30 30" fill="none" xmlns="http://www.w3.org/2000/svg">
<path d="M12.501 18.75L18.9885 15L12.501 11.25V18.75ZM26.951 8.9625C27.1135 9.55 27.226 10.3375 27.301 11.3375C27.3885 12.3375 27.426 13.2 27.426 13.95L27.501 15C27.501 17.7375 27.301 19.75 26.951 21.0375C26.6385 22.1625 25.9135 22.8875 24.7885 23.2C24.201 23.3625 23.126 23.475 21.476 23.55C19.851 23.6375 18.3635 23.675 16.9885 23.675L15.001 23.75C9.76348 23.75 6.50098 23.55 5.21348 23.2C4.08848 22.8875 3.36348 22.1625 3.05098 21.0375C2.88848 20.45 2.77598 19.6625 2.70098 18.6625C2.61348 17.6625 2.57598 16.8 2.57598 16.05L2.50098 15C2.50098 12.2625 2.70098 10.25 3.05098 8.9625C3.36348 7.8375 4.08848 7.1125 5.21348 6.8C5.80098 6.6375 6.87598 6.525 8.52598 6.45C10.151 6.3625 11.6385 6.325 13.0135 6.325L15.001 6.25C20.2385 6.25 23.501 6.45 24.7885 6.8C25.9135 7.1125 26.6385 7.8375 26.951 8.9625Z" fill="white"/>
</svg>
